<?xml version="1.0" encoding="utf-8"?>
<!-- Generator: Adobe Illustrator 18.1.1, SVG Export Plug-In . SVG Version: 6.00 Build 0)  -->
<svg version="1.1" id="Layer_1" xmlns="http://www.w3.org/2000/svg" xmlns:xlink="http://www.w3.org/1999/xlink" x="0px" y="0px"
	 viewBox="0 0 476.6 68.3" style="enable-background:new 0 0 476.6 68.3;" xml:space="preserve">
<g>
	<path style="fill:#FFFFFF;" d="M42.8,29.8l8.6-28.2h13.1L47.7,51.2h-9.3l-6.3-24.1l-6,24.1h-9.4L0,1.6h13l8.6,28.2l5.6-21.1h10
		L42.8,29.8z"/>
	<path style="fill:#FFFFFF;" d="M63.2,31h24.1c-0.4-3.2-4-5.1-7.7-5.1c-1.9,0-4.5,0.5-6.4,2.8c-1.4-1.1-6-4.3-7.9-5.7
		c3.5-4.7,9.9-6.3,15.2-6.3c9.6,0,17.9,7.1,17.9,17.6s-8.2,17.4-17.9,17.4c-9.6,0-17.4-6.6-17.4-17.1C63,33.8,63.1,32,63.2,31z
		 M73.9,37.4c1.1,4.3,5,5,6.7,5s5.8-0.6,6.7-5H73.9z"/>
	<path style="fill:#FFFFFF;" d="M110.2,0c3.8,0,6.8,2.8,6.8,6.5c0,3.6-3,6.6-6.8,6.6c-3.7,0-6.9-3-6.9-6.6
		C103.3,2.8,106.5,0,110.2,0z M104.5,51.2H116V17.6h-11.4V51.2z"/>
	<path style="fill:#FFFFFF;" d="M136.1,51.2h-11.4V17.6h10.9v8.3c1.7-6.4,6.3-9.1,10.6-9.1c1.4,0,3.1,0.1,5,0.9l-2.8,10.8
		c-2.4-0.9-4.2-0.9-5.2-0.9c-4.3,0-7,2.4-7,12.5V51.2z"/>
	<path style="fill:#FFFFFF;" d="M178.5,0h11.4v51.2h-10.8v-4.8c-1.9,4-6.3,5.5-9.9,5.5c-8.3,0-16.3-6.6-16.3-17.5
		c0-10.9,8.1-17.6,16.3-17.6c4,0,7.1,1.6,9.3,4V0z M171.5,41.4c3.8,0,7-3.2,7-7s-3.2-7-7-7s-7,3.2-7,7S167.7,41.4,171.5,41.4z"/>
	<path style="fill:#FFFFFF;" d="M260.5,40.5c-4.5,6.8-12.2,11.4-21.1,11.4c-14,0-25.3-11.4-25.3-25.4c0-14.1,11.3-25.5,25.3-25.5
		c8.9,0,16.6,4.5,21.2,11.4c0.9-0.6-10,7-10,7c-2.3-3.7-6.5-6.3-11.2-6.3c-7.3,0-13.1,6-13.1,13.4c0,7.4,5.8,13.3,13.1,13.3
		c4.8,0,8.9-2.4,11.2-6.2L260.5,40.5z"/>
	<path style="fill:#FFFFFF;" d="M290.3,17.6h11.4v33.6h-11.4v-3.8c-2.1,3-5.6,4.5-9.3,4.5c-8.3,0-16.3-6.6-16.3-17.5
		c0-10.9,8.1-17.6,16.3-17.6c3.4,0,7.2,1.5,9.3,4.5V17.6z M283.3,41.4c3.8,0,7-3.2,7-7s-3.2-7-7-7c-3.8,0-7,3.2-7,7
		S279.5,41.4,283.3,41.4z"/>
	<path style="fill:#FFFFFF;" d="M324.9,17.6h7.1v8.4h-7.1v25.1h-11.3V26.1h-6.1v-8.4h6.1v-12h11.3V17.6z"/>
	<path style="fill:#FFFFFF;" d="M360.8,17.6h11.4v33.6h-11.4v-3.8c-2.1,3-5.6,4.5-9.3,4.5c-8.3,0-16.3-6.6-16.3-17.5
		c0-10.9,8.1-17.6,16.3-17.6c3.4,0,7.2,1.5,9.3,4.5V17.6z M353.8,41.4c3.8,0,7-3.2,7-7s-3.2-7-7-7c-3.8,0-7,3.2-7,7
		S350,41.4,353.8,41.4z"/>
	<path style="fill:#FFFFFF;" d="M380.9,0h11.4v51.2h-11.4V0z"/>
	<path style="fill:#FFFFFF;" d="M399,34.3c0-10.7,8.4-17.6,17.8-17.6c9.6,0,18,6.9,18,17.6c0,10.6-8.4,17.5-18,17.5
		C407.4,51.8,399,44.9,399,34.3z M416.8,41.3c3.8,0,7-3.2,7-7s-3.2-7-7-7s-7,3.2-7,7S413,41.3,416.8,41.3z"/>
	<path style="fill:#FFFFFF;" d="M449.9,53.4c1.1,2.6,3.9,4.5,7.4,4.5c5.6,0,8.9-3.7,8.9-10.8c-1.6,2.8-5.2,4.8-10.3,4.8
		c-8.3,0-16.3-6.6-16.3-17.5c0-10.9,8.1-17.6,16.3-17.6c3.4,0,7.2,1.5,9.3,4.5v-3.6h11.4v29.3c0,14-7,21.3-19.3,21.3
		c-7.9,0-14.5-4.6-17.1-11L449.9,53.4z M458.2,41.4c3.8,0,7-3.2,7-7s-3.2-7-7-7c-3.8,0-7,3.2-7,7S454.4,41.4,458.2,41.4z"/>
</g>
</svg>
